<mxfile host="app.diagrams.net" agent="Mozilla/5.0 (Windows NT 10.0; Win64; x64) AppleWebKit/537.36 (KHTML, like Gecko) Chrome/136.0.0.0 Safari/537.36 Edg/136.0.0.0" version="26.2.15">
  <diagram name="第 1 页" id="Vooht3pG0E8o9t5SdrA_">
    <mxGraphModel dx="1563" dy="2179" grid="1" gridSize="10" guides="1" tooltips="1" connect="1" arrows="1" fold="1" page="1" pageScale="1" pageWidth="827" pageHeight="1169" math="0" shadow="0">
      <root>
        <mxCell id="0" />
        <mxCell id="1" parent="0" />
        <mxCell id="hH9HLdUd2_TQzNqCJv_k-165" value="数据存储" style="whiteSpace=wrap;strokeWidth=2;verticalAlign=top;fontSize=18;" vertex="1" parent="1">
          <mxGeometry x="731" y="892" width="780" height="131" as="geometry" />
        </mxCell>
        <mxCell id="hH9HLdUd2_TQzNqCJv_k-166" value="后端服务 (BackendService - Flask)" style="whiteSpace=wrap;strokeWidth=2;verticalAlign=top;fontSize=18;" vertex="1" parent="1">
          <mxGeometry x="20" y="303" width="1552" height="539" as="geometry" />
        </mxCell>
        <mxCell id="hH9HLdUd2_TQzNqCJv_k-167" value="图像处理核心" style="whiteSpace=wrap;strokeWidth=2;fontSize=18;" vertex="1" parent="1">
          <mxGeometry x="40" y="561" width="640" height="256" as="geometry" />
        </mxCell>
        <mxCell id="hH9HLdUd2_TQzNqCJv_k-168" value="用户界面 (FrontendApp)" style="whiteSpace=wrap;strokeWidth=2;verticalAlign=top;fontSize=18;" vertex="1" parent="1">
          <mxGeometry x="606" y="-50" width="766" height="337" as="geometry" />
        </mxCell>
        <mxCell id="hH9HLdUd2_TQzNqCJv_k-207" style="edgeStyle=orthogonalEdgeStyle;rounded=0;orthogonalLoop=1;jettySize=auto;html=1;exitX=1;exitY=0.5;exitDx=0;exitDy=0;entryX=0.5;entryY=0;entryDx=0;entryDy=0;curved=1;fontSize=18;" edge="1" parent="1" source="hH9HLdUd2_TQzNqCJv_k-170" target="hH9HLdUd2_TQzNqCJv_k-171">
          <mxGeometry relative="1" as="geometry" />
        </mxCell>
        <mxCell id="hH9HLdUd2_TQzNqCJv_k-208" style="edgeStyle=orthogonalEdgeStyle;rounded=0;orthogonalLoop=1;jettySize=auto;html=1;exitX=0;exitY=0.5;exitDx=0;exitDy=0;entryX=0.5;entryY=0;entryDx=0;entryDy=0;curved=1;fontSize=18;" edge="1" parent="1" source="hH9HLdUd2_TQzNqCJv_k-170" target="hH9HLdUd2_TQzNqCJv_k-172">
          <mxGeometry relative="1" as="geometry" />
        </mxCell>
        <mxCell id="hH9HLdUd2_TQzNqCJv_k-170" value="用户" style="whiteSpace=wrap;strokeWidth=2;fontSize=18;" vertex="1" parent="1">
          <mxGeometry x="944" y="-180" width="90" height="50" as="geometry" />
        </mxCell>
        <mxCell id="hH9HLdUd2_TQzNqCJv_k-212" style="edgeStyle=orthogonalEdgeStyle;rounded=0;orthogonalLoop=1;jettySize=auto;html=1;exitX=0.5;exitY=1;exitDx=0;exitDy=0;entryX=0.75;entryY=0;entryDx=0;entryDy=0;curved=1;fontSize=18;" edge="1" parent="1" source="hH9HLdUd2_TQzNqCJv_k-171" target="hH9HLdUd2_TQzNqCJv_k-174">
          <mxGeometry relative="1" as="geometry">
            <Array as="points">
              <mxPoint x="1221" y="328" />
            </Array>
          </mxGeometry>
        </mxCell>
        <mxCell id="hH9HLdUd2_TQzNqCJv_k-171" value="图像上传/参数选择" style="whiteSpace=wrap;strokeWidth=2;fontSize=18;" vertex="1" parent="1">
          <mxGeometry x="1096" y="-31" width="250" height="54" as="geometry" />
        </mxCell>
        <mxCell id="hH9HLdUd2_TQzNqCJv_k-211" style="edgeStyle=orthogonalEdgeStyle;rounded=0;orthogonalLoop=1;jettySize=auto;html=1;exitX=0.5;exitY=1;exitDx=0;exitDy=0;entryX=0.25;entryY=0;entryDx=0;entryDy=0;curved=1;fontSize=18;" edge="1" parent="1" source="hH9HLdUd2_TQzNqCJv_k-172" target="hH9HLdUd2_TQzNqCJv_k-174">
          <mxGeometry relative="1" as="geometry">
            <Array as="points">
              <mxPoint x="771" y="328" />
            </Array>
          </mxGeometry>
        </mxCell>
        <mxCell id="hH9HLdUd2_TQzNqCJv_k-172" value="交互操作 (ROI/文本)" style="whiteSpace=wrap;strokeWidth=2;fontSize=18;" vertex="1" parent="1">
          <mxGeometry x="641" y="-31" width="259" height="54" as="geometry" />
        </mxCell>
        <mxCell id="hH9HLdUd2_TQzNqCJv_k-210" style="edgeStyle=orthogonalEdgeStyle;rounded=0;orthogonalLoop=1;jettySize=auto;html=1;exitX=0.5;exitY=0;exitDx=0;exitDy=0;entryX=0.5;entryY=1;entryDx=0;entryDy=0;fontSize=18;" edge="1" parent="1" source="hH9HLdUd2_TQzNqCJv_k-173" target="hH9HLdUd2_TQzNqCJv_k-170">
          <mxGeometry relative="1" as="geometry" />
        </mxCell>
        <mxCell id="hH9HLdUd2_TQzNqCJv_k-173" value="结果展示/下载" style="whiteSpace=wrap;strokeWidth=2;fontSize=18;" vertex="1" parent="1">
          <mxGeometry x="887" y="60" width="204" height="54" as="geometry" />
        </mxCell>
        <mxCell id="hH9HLdUd2_TQzNqCJv_k-209" style="edgeStyle=orthogonalEdgeStyle;rounded=0;orthogonalLoop=1;jettySize=auto;html=1;exitX=0.5;exitY=0;exitDx=0;exitDy=0;entryX=0.5;entryY=1;entryDx=0;entryDy=0;fontSize=18;" edge="1" parent="1" source="hH9HLdUd2_TQzNqCJv_k-174" target="hH9HLdUd2_TQzNqCJv_k-173">
          <mxGeometry relative="1" as="geometry" />
        </mxCell>
        <mxCell id="hH9HLdUd2_TQzNqCJv_k-174" value="路由/请求处理" style="whiteSpace=wrap;strokeWidth=2;fontSize=18;" vertex="1" parent="1">
          <mxGeometry x="907" y="328" width="164" height="54" as="geometry" />
        </mxCell>
        <mxCell id="hH9HLdUd2_TQzNqCJv_k-175" value="用户认证" style="whiteSpace=wrap;strokeWidth=2;fontSize=18;" vertex="1" parent="1">
          <mxGeometry x="756" y="598" width="177" height="54" as="geometry" />
        </mxCell>
        <mxCell id="hH9HLdUd2_TQzNqCJv_k-176" value="文件处理/存储" style="whiteSpace=wrap;strokeWidth=2;fontSize=18;" vertex="1" parent="1">
          <mxGeometry x="1293" y="726" width="244" height="54" as="geometry" />
        </mxCell>
        <mxCell id="hH9HLdUd2_TQzNqCJv_k-177" value="任务编排/调用处理核心" style="whiteSpace=wrap;strokeWidth=2;fontSize=18;" vertex="1" parent="1">
          <mxGeometry x="391" y="432" width="228" height="54" as="geometry" />
        </mxCell>
        <mxCell id="hH9HLdUd2_TQzNqCJv_k-178" value="结果存储" style="whiteSpace=wrap;strokeWidth=2;fontSize=18;" vertex="1" parent="1">
          <mxGeometry x="1025" y="726" width="218" height="54" as="geometry" />
        </mxCell>
        <mxCell id="hH9HLdUd2_TQzNqCJv_k-179" value="数据库交互 (db)" style="whiteSpace=wrap;strokeWidth=2;fontSize=18;" vertex="1" parent="1">
          <mxGeometry x="715" y="714" width="260" height="78" as="geometry" />
        </mxCell>
        <mxCell id="hH9HLdUd2_TQzNqCJv_k-180" value="SRGAN++ 增强模块 " style="whiteSpace=wrap;strokeWidth=2;fontSize=18;" vertex="1" parent="1">
          <mxGeometry x="385" y="586" width="260" height="78" as="geometry" />
        </mxCell>
        <mxCell id="hH9HLdUd2_TQzNqCJv_k-181" value="目标检测模块  " style="whiteSpace=wrap;strokeWidth=2;fontSize=18;" vertex="1" parent="1">
          <mxGeometry x="75" y="586" width="260" height="78" as="geometry" />
        </mxCell>
        <mxCell id="hH9HLdUd2_TQzNqCJv_k-182" value="模型加载/管理" style="whiteSpace=wrap;strokeWidth=2;fontSize=18;" vertex="1" parent="1">
          <mxGeometry x="93" y="726" width="244" height="54" as="geometry" />
        </mxCell>
        <mxCell id="hH9HLdUd2_TQzNqCJv_k-183" value="SQLiteDB" style="shape=cylinder3;boundedLbl=1;backgroundOutline=1;size=10;strokeWidth=2;whiteSpace=wrap;fontSize=18;" vertex="1" parent="1">
          <mxGeometry x="766" y="917" width="157" height="81" as="geometry" />
        </mxCell>
        <mxCell id="hH9HLdUd2_TQzNqCJv_k-184" value="文件系统" style="shape=parallelogram;perimeter=parallelogramPerimeter;fixedSize=1;strokeWidth=2;whiteSpace=wrap;fontSize=18;" vertex="1" parent="1">
          <mxGeometry x="1135" y="926" width="278" height="63" as="geometry" />
        </mxCell>
        <mxCell id="hH9HLdUd2_TQzNqCJv_k-191" value="" style="curved=1;startArrow=none;endArrow=block;exitX=0.05;exitY=1;entryX=0.5;entryY=0;rounded=0;fontSize=18;" edge="1" parent="1" source="hH9HLdUd2_TQzNqCJv_k-174" target="hH9HLdUd2_TQzNqCJv_k-175">
          <mxGeometry relative="1" as="geometry">
            <Array as="points">
              <mxPoint x="845" y="407" />
            </Array>
          </mxGeometry>
        </mxCell>
        <mxCell id="hH9HLdUd2_TQzNqCJv_k-192" value="" style="curved=1;startArrow=none;endArrow=block;exitX=1;exitY=0.69;entryX=0.5;entryY=0;rounded=0;fontSize=18;" edge="1" parent="1" source="hH9HLdUd2_TQzNqCJv_k-174" target="hH9HLdUd2_TQzNqCJv_k-176">
          <mxGeometry relative="1" as="geometry">
            <Array as="points">
              <mxPoint x="1415" y="407" />
            </Array>
          </mxGeometry>
        </mxCell>
        <mxCell id="hH9HLdUd2_TQzNqCJv_k-193" value="" style="curved=1;startArrow=none;endArrow=block;exitX=0;exitY=0.66;entryX=0.5;entryY=0;rounded=0;fontSize=18;" edge="1" parent="1" source="hH9HLdUd2_TQzNqCJv_k-174" target="hH9HLdUd2_TQzNqCJv_k-177">
          <mxGeometry relative="1" as="geometry">
            <Array as="points">
              <mxPoint x="505" y="407" />
            </Array>
          </mxGeometry>
        </mxCell>
        <mxCell id="hH9HLdUd2_TQzNqCJv_k-194" value="" style="curved=1;startArrow=none;endArrow=block;exitX=0.5;exitY=0;entryX=0.96;entryY=1;rounded=0;fontSize=18;" edge="1" parent="1" source="hH9HLdUd2_TQzNqCJv_k-178" target="hH9HLdUd2_TQzNqCJv_k-174">
          <mxGeometry relative="1" as="geometry">
            <Array as="points">
              <mxPoint x="1134" y="407" />
            </Array>
          </mxGeometry>
        </mxCell>
        <mxCell id="hH9HLdUd2_TQzNqCJv_k-195" value="" style="curved=1;startArrow=none;endArrow=block;exitX=0.35;exitY=0;entryX=0;entryY=0.59;rounded=0;fontSize=18;" edge="1" parent="1" source="hH9HLdUd2_TQzNqCJv_k-181" target="hH9HLdUd2_TQzNqCJv_k-174">
          <mxGeometry relative="1" as="geometry">
            <Array as="points">
              <mxPoint x="143" y="561" />
              <mxPoint x="143" y="407" />
            </Array>
          </mxGeometry>
        </mxCell>
        <mxCell id="hH9HLdUd2_TQzNqCJv_k-196" value="" style="curved=1;startArrow=none;endArrow=block;exitX=0.82;exitY=1;entryX=0.687;entryY=0.036;rounded=0;entryDx=0;entryDy=0;entryPerimeter=0;fontSize=18;" edge="1" parent="1" source="hH9HLdUd2_TQzNqCJv_k-175" target="hH9HLdUd2_TQzNqCJv_k-179">
          <mxGeometry relative="1" as="geometry">
            <Array as="points">
              <mxPoint x="940" y="689" />
            </Array>
          </mxGeometry>
        </mxCell>
        <mxCell id="hH9HLdUd2_TQzNqCJv_k-197" value="" style="curved=1;startArrow=none;endArrow=block;exitX=0.33;exitY=0;entryX=0.33;entryY=1;rounded=0;fontSize=18;" edge="1" parent="1" source="hH9HLdUd2_TQzNqCJv_k-179" target="hH9HLdUd2_TQzNqCJv_k-175">
          <mxGeometry relative="1" as="geometry">
            <Array as="points">
              <mxPoint x="773" y="689" />
            </Array>
          </mxGeometry>
        </mxCell>
        <mxCell id="hH9HLdUd2_TQzNqCJv_k-198" value="" style="curved=1;startArrow=none;endArrow=block;exitX=0.5;exitY=1;entryX=0.75;entryY=0;rounded=0;fontSize=18;" edge="1" parent="1" source="hH9HLdUd2_TQzNqCJv_k-176" target="hH9HLdUd2_TQzNqCJv_k-184">
          <mxGeometry relative="1" as="geometry">
            <Array as="points">
              <mxPoint x="1415" y="892" />
            </Array>
          </mxGeometry>
        </mxCell>
        <mxCell id="hH9HLdUd2_TQzNqCJv_k-199" value="" style="curved=1;startArrow=none;endArrow=block;exitX=0.5;exitY=1;entryX=0.26;entryY=0;rounded=0;fontSize=18;" edge="1" parent="1" source="hH9HLdUd2_TQzNqCJv_k-178" target="hH9HLdUd2_TQzNqCJv_k-184">
          <mxGeometry relative="1" as="geometry">
            <Array as="points">
              <mxPoint x="1134" y="892" />
            </Array>
          </mxGeometry>
        </mxCell>
        <mxCell id="hH9HLdUd2_TQzNqCJv_k-200" value="" style="curved=1;startArrow=none;endArrow=block;exitX=0.52;exitY=1;entryX=0.5;entryY=0;rounded=0;fontSize=18;" edge="1" parent="1" source="hH9HLdUd2_TQzNqCJv_k-177" target="hH9HLdUd2_TQzNqCJv_k-180">
          <mxGeometry relative="1" as="geometry">
            <Array as="points">
              <mxPoint x="515" y="511" />
            </Array>
          </mxGeometry>
        </mxCell>
        <mxCell id="hH9HLdUd2_TQzNqCJv_k-201" value="" style="curved=1;startArrow=none;endArrow=block;exitX=0.15;exitY=1;entryX=0.84;entryY=0;rounded=0;fontSize=18;" edge="1" parent="1" source="hH9HLdUd2_TQzNqCJv_k-177" target="hH9HLdUd2_TQzNqCJv_k-181">
          <mxGeometry relative="1" as="geometry">
            <Array as="points">
              <mxPoint x="350" y="511" />
              <mxPoint x="350" y="561" />
            </Array>
          </mxGeometry>
        </mxCell>
        <mxCell id="hH9HLdUd2_TQzNqCJv_k-202" value="" style="curved=1;startArrow=none;endArrow=block;exitX=0.16;exitY=1;entryX=0.77;entryY=0;rounded=0;fontSize=18;" edge="1" parent="1" source="hH9HLdUd2_TQzNqCJv_k-180" target="hH9HLdUd2_TQzNqCJv_k-182">
          <mxGeometry relative="1" as="geometry">
            <Array as="points">
              <mxPoint x="370" y="689" />
            </Array>
          </mxGeometry>
        </mxCell>
        <mxCell id="hH9HLdUd2_TQzNqCJv_k-203" value="" style="curved=1;startArrow=none;endArrow=block;exitX=0.5;exitY=1;entryX=0.48;entryY=0;rounded=0;fontSize=18;" edge="1" parent="1" source="hH9HLdUd2_TQzNqCJv_k-181" target="hH9HLdUd2_TQzNqCJv_k-182">
          <mxGeometry relative="1" as="geometry">
            <Array as="points">
              <mxPoint x="205" y="689" />
            </Array>
          </mxGeometry>
        </mxCell>
        <mxCell id="hH9HLdUd2_TQzNqCJv_k-204" value="" style="curved=1;startArrow=none;endArrow=block;exitX=0.67;exitY=1;entryX=0;entryY=0.26;rounded=0;fontSize=18;" edge="1" parent="1" source="hH9HLdUd2_TQzNqCJv_k-180" target="hH9HLdUd2_TQzNqCJv_k-178">
          <mxGeometry relative="1" as="geometry">
            <Array as="points">
              <mxPoint x="588" y="689" />
            </Array>
          </mxGeometry>
        </mxCell>
        <mxCell id="hH9HLdUd2_TQzNqCJv_k-206" value="" style="curved=1;startArrow=none;endArrow=block;exitX=0.36;exitY=0;entryX=0.41;entryY=1;rounded=0;fontSize=18;" edge="1" parent="1" source="hH9HLdUd2_TQzNqCJv_k-183" target="hH9HLdUd2_TQzNqCJv_k-179">
          <mxGeometry relative="1" as="geometry">
            <Array as="points">
              <mxPoint x="822.5199999999995" y="817" />
              <mxPoint x="822.5199999999995" y="892" />
            </Array>
          </mxGeometry>
        </mxCell>
        <mxCell id="hH9HLdUd2_TQzNqCJv_k-220" value="" style="curved=1;startArrow=none;endArrow=block;exitX=0.36;exitY=0;entryX=0.41;entryY=1;rounded=0;fontSize=18;" edge="1" parent="1">
          <mxGeometry relative="1" as="geometry">
            <Array as="points">
              <mxPoint x="870.5199999999995" y="892" />
              <mxPoint x="870.5199999999995" y="817" />
            </Array>
            <mxPoint x="870" y="792" as="sourcePoint" />
            <mxPoint x="871" y="917" as="targetPoint" />
          </mxGeometry>
        </mxCell>
      </root>
    </mxGraphModel>
  </diagram>
</mxfile>
